<svg xmlns="http://www.w3.org/2000/svg" viewBox="0 0 100 100">
  <circle cx="50" cy="50" r="48" fill="#111"/>
  <path d="M55 72 C 60 65, 70 60, 75 50 C 78 42, 75 35, 80 28 C 82 32, 85 36, 84 42 C 88 38, 90 32, 90 25 C 92 30, 94 36, 92 42 C 95 40, 97 35, 98 30 C 99 38, 98 48, 94 56 C 90 68, 78 78, 68 85 C 62 75, 58 75, 55 72 Z" fill="#dc2626"/>
  <path d="M18 78 C 35 60, 55 65, 72 45 C 82 33, 78 22, 88 12 C 70 18, 55 15, 42 22 C 28 30, 22 45, 32 52 C 42 60, 58 55, 68 62 C 58 72, 38 72, 25 85 C 22 82, 20 80, 18 78 Z" fill="white"/>
</svg>
