<svg xmlns="http://www.w3.org/2000/svg" viewBox="0 0 100 100">
  <defs>
    <linearGradient id="flameGrad" x1="0%" y1="0%" x2="100%" y2="100%">
      <stop offset="0%" stop-color="#f97316"/>
      <stop offset="100%" stop-color="#dc2626"/>
    </linearGradient>
  </defs>
  <circle cx="50" cy="50" r="48" fill="#111"/>
  <!-- Flame -->
  <path d="M55 72 C 60 65, 70 60, 75 50 C 78 42, 75 35, 80 28 C 82 32, 85 36, 84 42 C 88 38, 90 32, 90 25 C 92 30, 94 36, 92 42 C 95 40, 97 35, 98 30 C 99 38, 98 48, 94 56 C 90 68, 78 78, 68 85 C 62 75, 58 75, 55 72 Z" fill="url(#flameGrad)"/>
  <!-- White S swoosh -->
  <path d="M18 78 C 35 60, 55 65, 72 45 C 82 33, 78 22, 88 12 C 70 18, 55 15, 42 22 C 28 30, 22 45, 32 52 C 42 60, 58 55, 68 62 C 58 72, 38 72, 25 85 C 22 82, 20 80, 18 78 Z" fill="white"/>
  <!-- Mountains -->
  <path d="M22 58 L 32 42 L 42 55 L 50 44 L 60 58 Z" fill="#111"/>
  <path d="M24 57 L 32 44 L 40 56 L 50 46 L 58 57 Z" fill="white"/>
  <!-- Snowboarder -->
  <g fill="white">
    <circle cx="46" cy="54" r="3"/>
    <path d="M44 56 L 42 62 L 45 64 L 48 58 Z"/>
    <path d="M42 62 L 38 66 L 40 68 L 44 64 Z"/>
    <path d="M45 64 L 48 70 L 46 72 L 42 66 Z"/>
    <path d="M48 70 L 54 72 L 55 70 L 49 68 Z"/>
    <path d="M38 66 L 34 68 L 35 70 L 39 68 Z"/>
    <ellipse cx="50" cy="72" rx="10" ry="2" transform="rotate(-15 50 72)" fill="white"/>
  </g>
</svg>
